<svg xmlns="http://www.w3.org/2000/svg" viewBox="0 0 400 300" width="406" height="306" class="illustration styles_illustrationTablet__1DWOa"><g id="_295_full_inbox_flatline" data-name="#295_full_inbox_flatline"><rect x="77.12" y="121.21" width="77.92" height="45.63" transform="translate(-35.89 38.56) rotate(-16.37)" fill="#fff"></rect><path d="M85.13,177.36a.46.46,0,0,1-.22-.06.53.53,0,0,1-.22-.27L71.83,133.25a.46.46,0,0,1,.31-.57l74.76-22a.46.46,0,0,1,.57.31l12.86,43.78a.41.41,0,0,1,0,.34.4.4,0,0,1-.27.22l-74.76,22ZM72.84,133.43l12.6,42.9,73.89-21.7-12.61-42.91Z" fill="#231f20"></path><path d="M117.94,150.81a.45.45,0,0,1-.16,0L72.11,133.55a.46.46,0,1,1,.32-.86l45.35,17.12,28.89-38.93a.46.46,0,0,1,.73.55l-29.09,39.2A.46.46,0,0,1,117.94,150.81Z" fill="#231f20"></path><path d="M159.79,155a.45.45,0,0,1-.16,0L124.5,141.74a.45.45,0,1,1,.32-.85L160,154.15a.44.44,0,0,1,.27.58A.45.45,0,0,1,159.79,155Z" fill="#231f20"></path><path d="M85,177a.43.43,0,0,1-.28-.09.45.45,0,0,1-.09-.63L107,146.11a.45.45,0,1,1,.73.54L85.39,176.81A.44.44,0,0,1,85,177Z" fill="#231f20"></path><rect x="77.9" y="79.19" width="77.92" height="45.63" transform="translate(65.92 -44.51) rotate(29.71)" fill="#fff"></rect><path d="M139.39,141.58a.46.46,0,0,1-.23-.06L71.49,102.9a.45.45,0,0,1-.22-.27.47.47,0,0,1,0-.35L93.93,62.65a.47.47,0,0,1,.63-.17l67.67,38.62a.45.45,0,0,1,.17.62l-22.61,39.63a.48.48,0,0,1-.28.22Zm-67-39.25,66.88,38.17,22.16-38.83L94.5,63.5Z" fill="#231f20"></path><path d="M113.59,108.19a.47.47,0,0,1-.42-.28L93.91,63.06a.46.46,0,0,1,.24-.6.45.45,0,0,1,.6.24l19.13,44.53L162,101.05a.44.44,0,0,1,.51.39.45.45,0,0,1-.39.51l-48.42,6.23Z" fill="#231f20"></path><path d="M139.58,141.26a.46.46,0,0,1-.42-.28l-14.82-34.51a.46.46,0,0,1,.24-.6.46.46,0,0,1,.6.24L140,140.62a.46.46,0,0,1-.24.6A.39.39,0,0,1,139.58,141.26Z" fill="#231f20"></path><path d="M71.9,102.64a.46.46,0,0,1-.06-.91l37.25-4.8a.45.45,0,0,1,.51.39.47.47,0,0,1-.39.52L72,102.63Z" fill="#231f20"></path><path d="M277.33,88.14H174.56v80.42h129.7V113C304.26,99.29,292.2,88.14,277.33,88.14Z" fill="#34b0cc"></path><path d="M304.26,169H174.55a.46.46,0,0,1-.45-.46V88.14a.45.45,0,0,1,.45-.45H277.33c15.1,0,27.39,11.37,27.39,25.34v55.53A.47.47,0,0,1,304.26,169ZM175,168.1H303.8V113c0-13.47-11.87-24.43-26.47-24.43H175Z" fill="#231f20"></path><path d="M201.48,114v54.53H147.62V114a25.71,25.71,0,0,1,6.82-17.51,25.83,25.83,0,0,1,19.07-8.38h2.3a25.91,25.91,0,0,1,24,16.65,23.23,23.23,0,0,1,.94,3,.07.07,0,0,1,0,0,1.29,1.29,0,0,1,.07.31A25.37,25.37,0,0,1,201.48,114Z" fill="#231f20"></path><path d="M201.48,169.06H147.62a.5.5,0,0,1-.5-.5V114a26.4,26.4,0,0,1,26.39-26.39h2.3a26.42,26.42,0,0,1,24.44,17,22.83,22.83,0,0,1,.95,3h0a0,0,0,0,1,0,0,1.77,1.77,0,0,1,.08.4A25.14,25.14,0,0,1,202,114v54.53A.5.5,0,0,1,201.48,169.06Zm-53.36-1H201V114a24.8,24.8,0,0,0-.67-5.77,1.16,1.16,0,0,0-.05-.24.44.44,0,0,1,0-.1v0a23.49,23.49,0,0,0-.91-2.93A25.44,25.44,0,0,0,175.8,88.64h-2.29A25.35,25.35,0,0,0,148.12,114Z" fill="#231f20"></path><path d="M147.63,168.56h53.85a0,0,0,0,1,0,0v47.72a24.54,24.54,0,0,1-24.54,24.54h-4.78a24.54,24.54,0,0,1-24.54-24.54V168.56a0,0,0,0,1,0,0Z" fill="#fff"></path><path d="M176.94,241.28h-4.77a25,25,0,0,1-25-25V168.56a.47.47,0,0,1,.46-.46h53.85a.47.47,0,0,1,.46.46v47.72A25,25,0,0,1,176.94,241.28ZM148.09,169v47.26a24.1,24.1,0,0,0,24.08,24.08h4.77A24.1,24.1,0,0,0,201,216.28V169Z" fill="#231f20"></path><path d="M187.86,212.29H161.25a.5.5,0,0,1-.5-.5.5.5,0,0,1,.5-.5h26.61a.5.5,0,0,1,.5.5A.5.5,0,0,1,187.86,212.29Z" fill="#d1d3d4"></path><circle cx="230.39" cy="123.45" r="5.15" fill="#fff"></circle><path d="M230.39,129.05a5.61,5.61,0,1,1,5.6-5.6A5.61,5.61,0,0,1,230.39,129.05Zm0-10.29a4.69,4.69,0,1,0,4.69,4.69A4.69,4.69,0,0,0,230.39,118.76Z" fill="#231f20"></path><path d="M230.39,118.76a.47.47,0,0,1-.46-.46V54.94a.46.46,0,0,1,.46-.45.45.45,0,0,1,.45.45V118.3A.46.46,0,0,1,230.39,118.76Z" fill="#231f20"></path><polygon points="249.32 59.73 230.39 68.25 230.39 54.94 249.32 54.94 249.32 59.73" fill="#fff"></polygon><path d="M230.39,68.75a.5.5,0,0,1-.27-.08.48.48,0,0,1-.23-.42V54.94a.5.5,0,0,1,.5-.5h18.93a.51.51,0,0,1,.5.5v4.78a.51.51,0,0,1-.3.46L230.59,68.7A.46.46,0,0,1,230.39,68.75Zm.5-13.31v12l17.93-8.07v-4Zm18.43,4.28h0Z" fill="#231f20"></path><rect x="219.46" y="168.56" width="21.7" height="5.18" fill="#fff"></rect><path d="M241.16,174.19h-21.7a.46.46,0,0,1-.46-.45v-5.18a.47.47,0,0,1,.46-.46h21.7a.47.47,0,0,1,.46.46v5.18A.46.46,0,0,1,241.16,174.19Zm-21.24-.91H240.7V169H219.92Z" fill="#231f20"></path><polyline points="222.95 246.23 222.95 173.74 236.01 173.74 236.01 246.23" fill="#fff"></polyline><path d="M236,246.69a.46.46,0,0,1-.45-.46v-72H223.4v72a.46.46,0,1,1-.91,0V173.74a.45.45,0,0,1,.46-.46H236a.45.45,0,0,1,.46.46v72.49A.46.46,0,0,1,236,246.69Z" fill="#231f20"></path><polygon points="192.3 117.22 192.21 117.57 189.67 127.4 187.16 137.09 186.35 140.2 184.36 147.89 180.97 161.01 180.96 161.05 180.87 161.39 133.59 149.16 130.55 148.38 118.9 145.37 105.44 141.88 105.53 141.51 116.86 97.71 129.39 100.95 141.9 104.18 156.27 107.91 185.69 115.51 192.22 117.2 192.3 117.22" fill="#fff"></polygon><path d="M180.87,161.85h-.11l-75.44-19.51a.47.47,0,0,1-.33-.56l.1-.37,11.32-43.81a.53.53,0,0,1,.21-.28.43.43,0,0,1,.35,0l75.36,19.49a.57.57,0,0,1,.32.22.49.49,0,0,1,.1.36L184.8,148l-3.49,13.5A.45.45,0,0,1,180.87,161.85ZM106,141.56l74.55,19.28,11.21-43.29L117.18,98.26Z" fill="#231f20"></path><path d="M147.22,136.39a.46.46,0,0,1-.36-.17L116.5,98a.46.46,0,0,1,.72-.57l30.14,38,44.77-18.59a.46.46,0,0,1,.35.85l-45.09,18.72A.47.47,0,0,1,147.22,136.39Z" fill="#231f20"></path><path d="M181,161.48a.46.46,0,0,1-.35-.17L157.26,131.9a.46.46,0,0,1,.72-.57l23.35,29.41a.46.46,0,0,1-.07.65A.52.52,0,0,1,181,161.48Z" fill="#231f20"></path><path d="M105.53,142a.45.45,0,0,1-.17-.87L140,126.69a.46.46,0,1,1,.35.85l-34.68,14.4A.57.57,0,0,1,105.53,142Z" fill="#231f20"></path><path d="M201.48,114v25.72l-1.53-.29-11.46-2.27-11.65-2.32L165.9,132.7l-12.17-2.41-2.43-.48-.64-.13-3-.61-12-2.38-3.7-.73,2.23-11.3,1.71-8.61,4.93-24.85,35,6.94L185.3,90a25.9,25.9,0,0,1,14.48,14.76,23.23,23.23,0,0,1,.94,3h.09v.36A25.37,25.37,0,0,1,201.48,114Z" fill="#fff"></path><path d="M201.48,140.21h-.08l-1.53-.29-68.06-13.5a.47.47,0,0,1-.29-.2.41.41,0,0,1-.07-.34l8.87-44.76a.46.46,0,0,1,.54-.36l44.53,8.83a26.38,26.38,0,0,1,14.82,15,25.76,25.76,0,0,1,.91,2.87.44.44,0,0,1,.14.3v.3a25.57,25.57,0,0,1,.69,5.93v25.72a.43.43,0,0,1-.17.35A.44.44,0,0,1,201.48,140.21Zm-69-14.61L201,139.2V114a24.83,24.83,0,0,0-.68-5.78.49.49,0,0,1,0-.12V108a.61.61,0,0,1-.07-.14,23,23,0,0,0-.91-2.93,25.41,25.41,0,0,0-14.23-14.5l-44-8.72Z" fill="#231f20"></path><path d="M173.27,118.09a.47.47,0,0,1-.35-.15L140.43,81.5a.45.45,0,0,1,.68-.6l32.27,36.17,26.2-12.69a.48.48,0,0,1,.62.21.47.47,0,0,1-.22.62L173.46,118A.45.45,0,0,1,173.27,118.09Z" fill="#231f20"></path><path d="M201.48,133.45a.47.47,0,0,1-.34-.16L183.06,113a.46.46,0,0,1,.68-.61l18.08,20.27a.45.45,0,0,1,0,.64A.47.47,0,0,1,201.48,133.45Z" fill="#231f20"></path><path d="M132,126.05a.45.45,0,0,1-.41-.26.46.46,0,0,1,.21-.61l33.8-16.36a.46.46,0,1,1,.4.82L132.17,126A.37.37,0,0,1,132,126.05Z" fill="#231f20"></path><rect x="135.6" y="118.3" width="65.89" height="45.63" fill="#fff"></rect><path d="M201.48,164.39H135.6a.47.47,0,0,1-.46-.46V118.3a.46.46,0,0,1,.46-.46h65.88a.45.45,0,0,1,.46.46v45.63A.46.46,0,0,1,201.48,164.39Zm-65.43-.92h65V118.75h-65Z" fill="#231f20"></path><path d="M174.55,148.16a.47.47,0,0,1-.28-.09l-39-29.4a.45.45,0,0,1-.14-.19.37.37,0,0,1-.05-.18.45.45,0,0,1,.46-.46h0a.47.47,0,0,1,.34.15l38.61,29.14L201.21,127a.46.46,0,1,1,.55.73l-26.94,20.33A.46.46,0,0,1,174.55,148.16Zm-39-29.85h0Z" fill="#231f20"></path><path d="M201.48,154.92a.46.46,0,0,1-.27-.09l-18-13.54a.46.46,0,0,1-.09-.64.45.45,0,0,1,.64-.09l17.95,13.54a.46.46,0,0,1-.28.82Z" fill="#231f20"></path><path d="M135.59,164a.46.46,0,0,1-.27-.82l30-22.63a.46.46,0,0,1,.55.73l-30,22.63A.49.49,0,0,1,135.59,164Z" fill="#231f20"></path><rect x="108.67" y="136.95" width="77.92" height="45.63" transform="translate(-54.59 79.6) rotate(-25.64)" fill="#fff"></rect><path d="M122.37,197.65a.46.46,0,0,1-.41-.26l-19.74-41.14a.47.47,0,0,1,0-.35.49.49,0,0,1,.23-.26l70.25-33.71a.46.46,0,0,1,.61.22L193,163.28a.47.47,0,0,1,0,.35.45.45,0,0,1-.23.26L122.57,197.6A.49.49,0,0,1,122.37,197.65Zm-19.13-41.38,19.34,40.31L192,163.26,172.67,123Z" fill="#231f20"></path><path d="M150.48,166.17h-.09l-47.85-9.66a.45.45,0,0,1-.36-.53.45.45,0,0,1,.54-.36l47.51,9.59,22.25-43.07a.46.46,0,0,1,.81.42l-22.4,43.37A.45.45,0,0,1,150.48,166.17Z" fill="#231f20"></path><path d="M192.46,163.6h-.09l-36.81-7.43a.46.46,0,0,1-.36-.54.45.45,0,0,1,.54-.36l36.81,7.43a.46.46,0,0,1-.09.91Z" fill="#231f20"></path><path d="M122.21,197.31a.54.54,0,0,1-.21-.05.46.46,0,0,1-.2-.62L139,163.28a.47.47,0,0,1,.62-.2.47.47,0,0,1,.2.62l-17.24,33.36A.45.45,0,0,1,122.21,197.31Z" fill="#231f20"></path><polygon points="222.95 185.06 236.01 194.67 236.01 173.74 222.95 173.74 222.95 185.06" fill="#231f20"></polygon><path d="M236,195.17a.5.5,0,0,1-.29-.09l-13.07-9.61a.51.51,0,0,1-.2-.4V173.74a.5.5,0,0,1,.5-.5H236a.5.5,0,0,1,.5.5v20.93a.49.49,0,0,1-.27.45A.46.46,0,0,1,236,195.17Zm-12.56-10.36,12.06,8.88V174.24H223.45Z" fill="#231f20"></path></g></svg>